<?xml version="1.0" encoding="UTF-8" standalone="no"?>
<!DOCTYPE svg PUBLIC "-//W3C//DTD SVG 1.0//EN" "http://www.w3.org/TR/2001/PR-SVG-20010719/DTD/svg10.dtd">
<svg width="43cm" height="22cm" viewBox="239 139 842 422" xmlns="http://www.w3.org/2000/svg" xmlns:xlink="http://www.w3.org/1999/xlink">
  <g>
    <rect style="fill: #ffffff" x="340" y="140" width="560" height="160"/>
    <rect style="fill: none; fill-opacity:0; stroke-width: 2; stroke: #000000" x="340" y="140" width="560" height="160"/>
  </g>
  <g>
    <rect style="fill: #ffffff" x="340" y="340" width="160" height="220"/>
    <rect style="fill: none; fill-opacity:0; stroke-width: 2; stroke: #000000" x="340" y="340" width="160" height="220"/>
  </g>
  <g>
    <rect style="fill: #ffffff" x="360" y="180" width="240" height="40"/>
    <rect style="fill: none; fill-opacity:0; stroke-width: 2; stroke: #000000" x="360" y="180" width="240" height="40"/>
  </g>
  <text font-size="12.8" style="fill: #000000;text-anchor:start;font-family:sans-serif;font-style:normal;font-weight:normal" x="420" y="200">
    <tspan x="420" y="200">Controller Manager</tspan>
  </text>
  <g>
    <rect style="fill: #ffffff" x="640" y="180" width="240" height="40"/>
    <rect style="fill: none; fill-opacity:0; stroke-width: 2; stroke: #000000" x="640" y="180" width="240" height="40"/>
  </g>
  <text font-size="12.8" style="fill: #000000;text-anchor:start;font-family:sans-serif;font-style:normal;font-weight:normal" x="720" y="200">
    <tspan x="720" y="200">Scheduler</tspan>
  </text>
  <g>
    <rect style="fill: #ffffff" x="360" y="240" width="520" height="40"/>
    <rect style="fill: none; fill-opacity:0; stroke-width: 2; stroke: #000000" x="360" y="240" width="520" height="40"/>
  </g>
  <text font-size="12.8" style="fill: #000000;text-anchor:start;font-family:sans-serif;font-style:normal;font-weight:normal" x="580" y="260">
    <tspan x="580" y="260">API Server</tspan>
  </text>
  <text font-size="12.8" style="fill: #000000;text-anchor:start;font-family:sans-serif;font-style:normal;font-weight:normal" x="360" y="160">
    <tspan x="360" y="160">master</tspan>
  </text>
  <text font-size="12.8" style="fill: #000000;text-anchor:start;font-family:sans-serif;font-style:normal;font-weight:normal" x="360" y="360">
    <tspan x="360" y="360">worker</tspan>
  </text>
  <g>
    <rect style="fill: #ffffff" x="360" y="380" width="120" height="40"/>
    <rect style="fill: none; fill-opacity:0; stroke-width: 2; stroke: #000000" x="360" y="380" width="120" height="40"/>
  </g>
  <text font-size="12.8" style="fill: #000000;text-anchor:start;font-family:sans-serif;font-style:normal;font-weight:normal" x="400" y="400">
    <tspan x="400" y="400">kubelet</tspan>
  </text>
  <g>
    <rect style="fill: #ffffff" x="360" y="440" width="120" height="40"/>
    <rect style="fill: none; fill-opacity:0; stroke-width: 2; stroke: #000000" x="360" y="440" width="120" height="40"/>
  </g>
  <text font-size="12.8" style="fill: #000000;text-anchor:start;font-family:sans-serif;font-style:normal;font-weight:normal" x="380" y="460">
    <tspan x="380" y="460">kube-proxy</tspan>
  </text>
  <g>
    <rect style="fill: #ffffff" x="540" y="340" width="160" height="220"/>
    <rect style="fill: none; fill-opacity:0; stroke-width: 2; stroke: #000000" x="540" y="340" width="160" height="220"/>
  </g>
  <text font-size="12.8" style="fill: #000000;text-anchor:start;font-family:sans-serif;font-style:normal;font-weight:normal" x="560" y="360">
    <tspan x="560" y="360">worker</tspan>
  </text>
  <g>
    <rect style="fill: #ffffff" x="560" y="380" width="120" height="40"/>
    <rect style="fill: none; fill-opacity:0; stroke-width: 2; stroke: #000000" x="560" y="380" width="120" height="40"/>
  </g>
  <text font-size="12.8" style="fill: #000000;text-anchor:start;font-family:sans-serif;font-style:normal;font-weight:normal" x="600" y="400">
    <tspan x="600" y="400">kubelet</tspan>
  </text>
  <g>
    <rect style="fill: #ffffff" x="560" y="440" width="120" height="40"/>
    <rect style="fill: none; fill-opacity:0; stroke-width: 2; stroke: #000000" x="560" y="440" width="120" height="40"/>
  </g>
  <text font-size="12.8" style="fill: #000000;text-anchor:start;font-family:sans-serif;font-style:normal;font-weight:normal" x="580" y="460">
    <tspan x="580" y="460">kube-proxy</tspan>
  </text>
  <g>
    <rect style="fill: #ffffff" x="740" y="340" width="160" height="220"/>
    <rect style="fill: none; fill-opacity:0; stroke-width: 2; stroke: #000000" x="740" y="340" width="160" height="220"/>
  </g>
  <text font-size="12.8" style="fill: #000000;text-anchor:start;font-family:sans-serif;font-style:normal;font-weight:normal" x="760" y="360">
    <tspan x="760" y="360">worker</tspan>
  </text>
  <g>
    <rect style="fill: #ffffff" x="760" y="380" width="120" height="40"/>
    <rect style="fill: none; fill-opacity:0; stroke-width: 2; stroke: #000000" x="760" y="380" width="120" height="40"/>
  </g>
  <text font-size="12.8" style="fill: #000000;text-anchor:start;font-family:sans-serif;font-style:normal;font-weight:normal" x="800" y="400">
    <tspan x="800" y="400">kubelet</tspan>
  </text>
  <g>
    <rect style="fill: #ffffff" x="760" y="440" width="120" height="40"/>
    <rect style="fill: none; fill-opacity:0; stroke-width: 2; stroke: #000000" x="760" y="440" width="120" height="40"/>
  </g>
  <text font-size="12.8" style="fill: #000000;text-anchor:start;font-family:sans-serif;font-style:normal;font-weight:normal" x="780" y="460">
    <tspan x="780" y="460">kube-proxy</tspan>
  </text>
  <g>
    <rect style="fill: #ffffff" x="920" y="140" width="160" height="160"/>
    <rect style="fill: none; fill-opacity:0; stroke-width: 2; stroke: #000000" x="920" y="140" width="160" height="160"/>
  </g>
  <text font-size="12.8" style="fill: #000000;text-anchor:start;font-family:sans-serif;font-style:normal;font-weight:normal" x="940" y="160">
    <tspan x="940" y="160">client</tspan>
  </text>
  <g>
    <rect style="fill: #ffffff" x="940" y="180" width="120" height="40"/>
    <rect style="fill: none; fill-opacity:0; stroke-width: 2; stroke: #000000" x="940" y="180" width="120" height="40"/>
  </g>
  <text font-size="12.8" style="fill: #000000;text-anchor:start;font-family:sans-serif;font-style:normal;font-weight:normal" x="980" y="200">
    <tspan x="980" y="200">kubectl</tspan>
  </text>
  <g>
    <path style="fill: #a5a585" d="M 322.739 243.934 L 322.682,243.211 L 322.524,242.499 L 322.253,241.787 L 321.88,241.087 L 321.417,240.387 L 320.841,239.697 L 320.163,239.02 L 319.384,238.353 L 318.502,237.698 L 317.531,237.077 L 316.469,236.455 L 315.328,235.845 L 314.074,235.269 L 312.752,234.715 L 311.351,234.185 L 309.86,233.676 L 308.313,233.202 L 306.686,232.75 L 305.003,232.332 L 303.24,231.936 L 301.444,231.564 L 299.58,231.236 L 297.671,230.92 L 295.739,230.66 L 293.751,230.434 L 291.729,230.242 L 289.695,230.072 L 287.628,229.959 L 285.549,229.858 L 283.459,229.79 L 281.369,229.79 L 281.369,229.79 L 279.268,229.79 L 277.178,229.858 L 275.1,229.959 L 273.032,230.072 L 270.999,230.242 L 268.977,230.434 L 267,230.66 L 265.057,230.92 L 263.147,231.236 L 261.283,231.564 L 259.487,231.936 L 257.736,232.332 L 256.053,232.75 L 254.426,233.202 L 252.867,233.676 L 251.376,234.185 L 249.986,234.715 L 248.653,235.269 L 247.411,235.845 L 246.259,236.455 L 245.197,237.077 L 244.225,237.698 L 243.344,238.353 L 242.564,239.02 L 241.887,239.697 L 241.31,240.387 L 240.847,241.087 L 240.474,241.787 L 240.203,242.499 L 240.056,243.211 L 240,243.934 L 240,243.934 L 240.056,244.657 L 240.203,245.357 L 240.474,246.08 L 240.847,246.781 L 241.31,247.481 L 241.887,248.17 L 242.564,248.848 L 243.344,249.514 L 244.225,250.158 L 245.197,250.791 L 246.259,251.412 L 247.411,252.022 L 248.653,252.599 L 249.986,253.152 L 251.376,253.683 L 252.867,254.191 L 254.426,254.666 L 256.053,255.118 L 257.736,255.536 L 259.487,255.931 L 261.283,256.304 L 263.147,256.632 L 265.057,256.937 L 267,257.208 L 268.977,257.434 L 270.999,257.626 L 273.032,257.784 L 275.1,257.908 L 277.178,257.998 L 279.268,258.066 L 281.369,258.078 L 281.369,258.078 L 283.459,258.066 L 285.549,257.998 L 287.628,257.908 L 289.695,257.784 L 291.729,257.626 L 293.751,257.434 L 295.739,257.208 L 297.671,256.937 L 299.58,256.632 L 301.444,256.304 L 303.24,255.931 L 305.003,255.536 L 306.686,255.118 L 308.313,254.666 L 309.86,254.191 L 311.351,253.683 L 312.752,253.152 L 314.074,252.599 L 315.328,252.022 L 316.469,251.412 L 317.531,250.791 L 318.502,250.158 L 319.384,249.514 L 320.163,248.848 L 320.841,248.17 L 321.417,247.481 L 321.88,246.781 L 322.253,246.08 L 322.524,245.357 L 322.682,244.657 L 322.739,243.934z"/>
    <path style="fill: none; fill-opacity:0; stroke-width: 0.02; stroke: #494936" d="M 322.253 243.708 L 322.197,242.985 L 322.05,242.296 L 321.79,241.595 L 321.428,240.906 L 320.943,240.206 L 320.355,239.539 L 319.711,238.861 L 318.92,238.229 L 318.051,237.585 L 317.09,236.952 L 316.028,236.354 L 314.887,235.755 L 313.656,235.19 L 312.357,234.625 L 310.933,234.117 L 309.454,233.62 L 307.906,233.145 L 306.302,232.705 L 304.63,232.298 L 302.89,231.903 L 301.083,231.552 L 299.241,231.225 L 297.343,230.92 L 295.423,230.66 L 293.457,230.434 L 291.435,230.253 L 289.413,230.072 L 287.357,229.971 L 285.301,229.88 L 283.199,229.824 L 281.121,229.79 L 281.121,229.79 L 279.042,229.824 L 276.964,229.88 L 274.885,229.971 L 272.851,230.072 L 270.818,230.253 L 268.807,230.434 L 266.83,230.66 L 264.898,230.92 L 263.012,231.225 L 261.17,231.552 L 259.363,231.903 L 257.623,232.298 L 255.963,232.705 L 254.336,233.145 L 252.777,233.62 L 251.308,234.117 L 249.907,234.625 L 248.608,235.19 L 247.366,235.755 L 246.213,236.354 L 245.174,236.952 L 244.214,237.585 L 243.321,238.229 L 242.553,238.861 L 241.887,239.539 L 241.31,240.206 L 240.836,240.906 L 240.463,241.595 L 240.203,242.296 L 240.056,242.985 L 240,243.708 L 240,243.708 L 240.056,244.408 L 240.203,245.097 L 240.463,245.809 L 240.836,246.498 L 241.31,247.187 L 241.887,247.865 L 242.553,248.532 L 243.321,249.176 L 244.214,249.808 L 245.174,250.452 L 246.213,251.062 L 247.366,251.638 L 248.608,252.214 L 249.907,252.768 L 251.308,253.288 L 252.777,253.785 L 254.336,254.248 L 255.963,254.7 L 257.623,255.106 L 259.363,255.502 L 261.17,255.863 L 263.012,256.18 L 264.898,256.473 L 266.83,256.733 L 268.807,256.959 L 270.818,257.151 L 272.851,257.321 L 274.885,257.434 L 276.964,257.524 L 279.042,257.58 L 281.121,257.603 L 281.121,257.603 L 283.199,257.58 L 285.301,257.524 L 287.357,257.434 L 289.413,257.321 L 291.435,257.151 L 293.457,256.959 L 295.423,256.733 L 297.343,256.473 L 299.241,256.18 L 301.083,255.863 L 302.89,255.502 L 304.63,255.106 L 306.302,254.7 L 307.906,254.248 L 309.454,253.785 L 310.933,253.288 L 312.357,252.768 L 313.656,252.214 L 314.887,251.638 L 316.028,251.062 L 317.09,250.452 L 318.051,249.808 L 318.92,249.176 L 319.711,248.532 L 320.355,247.865 L 320.943,247.187 L 321.428,246.498 L 321.79,245.809 L 322.05,245.097 L 322.197,244.408 L 322.253,243.708"/>
    <path style="fill: #a5a585" d="M 240 214.392 L 240,244.182 L 322.253,244.182 L 322.253,214.392 L 240,214.392z"/>
    <path style="fill: #c9c9b6" d="M 322.739 214.144 L 322.682,213.409 L 322.524,212.698 L 322.253,211.997 L 321.88,211.297 L 321.417,210.585 L 320.841,209.896 L 320.163,209.207 L 319.384,208.563 L 318.502,207.919 L 317.531,207.264 L 316.469,206.665 L 315.328,206.055 L 314.074,205.468 L 312.752,204.925 L 311.351,204.395 L 309.86,203.875 L 308.313,203.4 L 306.686,202.96 L 305.003,202.531 L 303.24,202.135 L 301.444,201.774 L 299.58,201.446 L 297.671,201.141 L 295.739,200.87 L 293.751,200.644 L 291.729,200.452 L 289.695,200.294 L 287.628,200.169 L 285.549,200.068 L 283.459,200.011 L 281.369,200 L 281.369,200 L 279.268,200.011 L 277.178,200.068 L 275.1,200.169 L 273.032,200.294 L 270.999,200.452 L 268.977,200.644 L 267,200.87 L 265.057,201.141 L 263.147,201.446 L 261.283,201.774 L 259.487,202.135 L 257.736,202.531 L 256.053,202.96 L 254.426,203.4 L 252.867,203.875 L 251.376,204.395 L 249.986,204.925 L 248.653,205.468 L 247.411,206.055 L 246.259,206.665 L 245.197,207.264 L 244.225,207.919 L 243.344,208.563 L 242.564,209.207 L 241.887,209.896 L 241.31,210.585 L 240.847,211.297 L 240.474,211.997 L 240.203,212.698 L 240.056,213.409 L 240,214.144 L 240,214.144 L 240.056,214.855 L 240.203,215.578 L 240.474,216.268 L 240.847,216.991 L 241.31,217.68 L 241.887,218.38 L 242.564,219.058 L 243.344,219.713 L 244.225,220.368 L 245.197,221.001 L 246.259,221.622 L 247.411,222.221 L 248.653,222.797 L 249.986,223.351 L 251.376,223.893 L 252.867,224.39 L 254.426,224.876 L 256.053,225.328 L 257.736,225.746 L 259.487,226.141 L 261.283,226.514 L 263.147,226.83 L 265.057,227.147 L 267,227.406 L 268.977,227.632 L 270.999,227.836 L 273.032,227.983 L 275.1,228.118 L 277.178,228.208 L 279.268,228.265 L 281.369,228.288 L 281.369,228.288 L 283.459,228.265 L 285.549,228.208 L 287.628,228.118 L 289.695,227.983 L 291.729,227.836 L 293.751,227.632 L 295.739,227.406 L 297.671,227.147 L 299.58,226.83 L 301.444,226.514 L 303.24,226.141 L 305.003,225.746 L 306.686,225.328 L 308.313,224.876 L 309.86,224.39 L 311.351,223.893 L 312.752,223.351 L 314.074,222.797 L 315.328,222.221 L 316.469,221.622 L 317.531,221.001 L 318.502,220.368 L 319.384,219.713 L 320.163,219.058 L 320.841,218.38 L 321.417,217.68 L 321.88,216.991 L 322.253,216.268 L 322.524,215.578 L 322.682,214.855 L 322.739,214.144z"/>
    <path style="fill: none; fill-opacity:0; stroke-width: 0.02; stroke: #494936" d="M 322.253 213.918 L 322.197,213.195 L 322.05,212.506 L 321.79,211.817 L 321.428,211.116 L 320.943,210.404 L 320.355,209.738 L 319.711,209.094 L 318.92,208.428 L 318.051,207.795 L 317.09,207.151 L 316.028,206.564 L 314.887,205.965 L 313.656,205.389 L 312.357,204.858 L 310.933,204.327 L 309.454,203.841 L 307.906,203.366 L 306.302,202.915 L 304.63,202.497 L 302.89,202.113 L 301.083,201.762 L 299.241,201.435 L 297.343,201.141 L 295.423,200.87 L 293.457,200.644 L 291.435,200.452 L 289.413,200.294 L 287.357,200.169 L 286.668,200.136 L 275.574,200.136 L 274.885,200.169 L 272.851,200.294 L 270.818,200.452 L 268.807,200.644 L 266.83,200.87 L 264.898,201.141 L 263.012,201.435 L 261.17,201.762 L 259.363,202.113 L 257.623,202.497 L 255.963,202.915 L 254.336,203.366 L 252.777,203.841 L 251.308,204.327 L 249.907,204.858 L 248.608,205.389 L 247.366,205.965 L 246.213,206.564 L 245.174,207.151 L 244.214,207.795 L 243.321,208.428 L 242.553,209.094 L 241.887,209.738 L 241.31,210.404 L 240.836,211.116 L 240.463,211.817 L 240.203,212.506 L 240.056,213.195 L 240,213.918 L 240,213.918 L 240.056,214.607 L 240.203,215.319 L 240.463,216.019 L 240.836,216.708 L 241.31,217.397 L 241.887,218.075 L 242.553,218.73 L 243.321,219.397 L 244.214,220.029 L 245.174,220.662 L 246.213,221.272 L 247.366,221.848 L 248.608,222.413 L 249.907,222.978 L 251.308,223.498 L 252.777,223.983 L 254.336,224.447 L 255.963,224.898 L 257.623,225.305 L 259.363,225.701 L 261.17,226.073 L 263.012,226.367 L 264.898,226.683 L 266.83,226.932 L 268.807,227.169 L 270.818,227.372 L 272.851,227.531 L 274.885,227.655 L 276.964,227.734 L 279.042,227.779 L 281.121,227.813 L 281.121,227.813 L 283.199,227.779 L 285.301,227.734 L 287.357,227.655 L 289.413,227.531 L 291.435,227.372 L 293.457,227.169 L 295.423,226.932 L 297.343,226.683 L 299.241,226.367 L 301.083,226.073 L 302.89,225.701 L 304.63,225.305 L 306.302,224.898 L 307.906,224.447 L 309.454,223.983 L 310.933,223.498 L 312.357,222.978 L 313.656,222.413 L 314.887,221.848 L 316.028,221.272 L 317.09,220.662 L 318.051,220.029 L 318.92,219.397 L 319.711,218.73 L 320.355,218.075 L 320.943,217.397 L 321.428,216.708 L 321.79,216.019 L 322.05,215.319 L 322.197,214.607 L 322.253,213.918"/>
    <path style="fill: none; fill-opacity:0; stroke-width: 0.02; stroke: #000000" d="M 240 213.918 L 240,243.685"/>
    <path style="fill: none; fill-opacity:0; stroke-width: 0.02; stroke: #000000" d="M 322.253 213.918 L 322.253,243.685"/>
  </g>
  <text font-size="12.8" style="fill: #000000;text-anchor:start;font-family:sans-serif;font-style:normal;font-weight:normal" x="260" y="240">
    <tspan x="260" y="240">  etcd</tspan>
  </text>
  <g>
    <path style="fill: #c9c9b6" d="M 979.756 266.749 L 1025.81,266.749 L 1006.45,286.181 L 960.39,286.181 L 979.756,266.749z"/>
    <path style="fill: none; fill-opacity:0; stroke-width: 0.02; stroke: #494936" d="M 979.756 266.749 L 1025.81,266.749 L 1006.45,286.181 L 960.39,286.181 L 979.756,266.749"/>
    <path style="fill: none; fill-opacity:0; stroke-width: 0.02; stroke: #dbdbce" d="M 981.524 282.898 L 981.524,283.002 L 981.543,283.086 L 981.571,283.199 L 981.608,283.312 L 981.665,283.397 L 981.731,283.5 L 981.815,283.594 L 981.9,283.679 L 981.985,283.782 L 982.098,283.886 L 982.21,283.971 L 982.333,284.046 L 982.474,284.121 L 982.605,284.206 L 982.775,284.271 L 982.925,284.356 L 983.094,284.422 L 983.283,284.488 L 983.471,284.544 L 983.649,284.601 L 983.847,284.657 L 984.044,284.714 L 984.251,284.742 L 984.477,284.779 L 984.693,284.798 L 984.919,284.836 L 985.126,284.864 L 985.361,284.892 L 985.596,284.902 L 985.822,284.911 L 986.048,284.911"/>
    <path style="fill: none; fill-opacity:0; stroke-width: 0.02; stroke: #dbdbce" d="M 985.549 284.911 L 985.775,284.911 L 985.991,284.902 L 986.208,284.883 L 986.433,284.855 L 986.659,284.836 L 986.866,284.798 L 987.073,284.779 L 987.289,284.732 L 987.487,284.685 L 987.694,284.629 L 987.872,284.572 L 988.06,284.516 L 988.239,284.45 L 988.408,284.384 L 988.559,284.319 L 988.719,284.243 L 988.869,284.159 L 989.001,284.083 L 989.133,283.989 L 989.246,283.895 L 989.349,283.801 L 989.434,283.717 L 989.528,283.613 L 989.603,283.51 L 989.659,283.425 L 989.725,283.322 L 989.753,283.199 L 989.782,283.096 L 989.81,283.002 L 989.819,282.898"/>
    <path style="fill: none; fill-opacity:0; stroke-width: 0.02; stroke: #dbdbce" d="M 986.546 279.127 L 986.311,279.127 L 986.085,279.136 L 985.85,279.136 L 985.643,279.155 L 985.418,279.183 L 985.192,279.202 L 984.976,279.221 L 984.75,279.268 L 984.552,279.305 L 984.355,279.334 L 984.157,279.381 L 983.96,279.437 L 983.781,279.484 L 983.612,279.541 L 983.442,279.616 L 983.254,279.672 L 983.123,279.738 L 982.972,279.795 L 982.831,279.87 L 982.718,279.954 L 982.596,280.03 L 982.493,280.096 L 982.389,280.18 L 982.314,280.265 L 982.239,280.359 L 982.163,280.444 L 982.126,280.519 L 982.079,280.613 L 982.05,280.688 L 982.041,280.792 L 982.032,280.867"/>
    <path style="fill: none; fill-opacity:0; stroke-width: 0.02; stroke: #dbdbce" d="M 990.308 280.867 L 990.308,280.782 L 990.299,280.688 L 990.261,280.603 L 990.224,280.5 L 990.177,280.425 L 990.101,280.321 L 990.026,280.246 L 989.951,280.152 L 989.838,280.086 L 989.753,279.992 L 989.641,279.917 L 989.49,279.851 L 989.368,279.757 L 989.227,279.71 L 989.076,279.635 L 988.907,279.559 L 988.728,279.503 L 988.55,279.447 L 988.371,279.4 L 988.183,279.362 L 987.985,279.315 L 987.778,279.268 L 987.581,279.24 L 987.374,279.202 L 987.167,279.183 L 986.951,279.155 L 986.725,279.136 L 986.49,279.136 L 986.264,279.127 L 986.048,279.127"/>
    <path style="fill: #a5a585" d="M 960.39 288.194 L 1006.45,288.194 L 1006.45,286.181 L 960.39,286.181 L 960.39,288.194z"/>
    <path style="fill: none; fill-opacity:0; stroke-width: 0.02; stroke: #494936" d="M 960.39 288.194 L 1006.45,288.194 L 1006.45,286.181 L 960.39,286.181 L 960.39,288.194"/>
    <path style="fill: #a5a585" d="M 979.756 266.749 L 1025.81,266.749 L 1025.81,235.242 L 979.756,235.242 L 979.756,266.749z"/>
    <path style="fill: none; fill-opacity:0; stroke-width: 0.02; stroke: #494936" d="M 979.756 266.749 L 1025.81,266.749 L 1025.81,235.242 L 979.756,235.242 L 979.756,266.749"/>
    <path style="fill: #7a7a5a" d="M 1027.07 265.508 L 1027.07,234 L 1025.81,235.242 L 1025.81,266.749 L 1027.07,265.508z"/>
    <path style="fill: none; fill-opacity:0; stroke-width: 0.02; stroke: #494936" d="M 1027.07 265.508 L 1027.07,234 L 1025.81,235.242 L 1025.81,266.749 L 1027.07,265.508"/>
    <path style="fill: #ffffff" d="M 982.032 264.746 L 1023.56,264.746 L 1023.56,237.772 L 982.032,237.772 L 982.032,264.746z"/>
    <path style="fill: none; fill-opacity:0; stroke-width: 0.02; stroke: #494936" d="M 982.032 264.746 L 1023.56,264.746 L 1023.56,237.772 L 982.032,237.772 L 982.032,264.746"/>
    <path style="fill: #93936c" d="M 982.032 268.273 L 1020.77,268.273 L 1010.71,278.365 L 971.968,278.365 L 982.032,268.273z"/>
    <path style="fill: none; fill-opacity:0; stroke-width: 0.02; stroke: #494936" d="M 982.032 268.273 L 1020.77,268.273 L 1010.71,278.365 L 971.968,278.365 L 982.032,268.273"/>
    <path style="fill: #7a7a5a" d="M 988.06 282.259 L 988.06,282.202 L 988.051,282.146 L 988.042,282.089 L 988.013,282.024 L 988.004,281.967 L 987.966,281.92 L 987.948,281.864 L 987.901,281.826 L 987.854,281.77 L 987.825,281.713 L 987.778,281.666 L 987.722,281.619 L 987.665,281.563 L 987.6,281.516 L 987.543,281.488 L 987.477,281.44 L 987.402,281.403 L 987.317,281.375 L 987.252,281.328 L 987.167,281.309 L 987.082,281.271 L 987.007,281.252 L 986.913,281.224 L 986.828,281.205 L 986.725,281.187 L 986.64,281.158 L 986.546,281.149 L 986.462,281.149 L 986.368,281.14 L 986.255,281.14 L 986.179,281.14 L 986.179,281.14 L 986.076,281.14 L 985.972,281.14 L 985.888,281.149 L 985.794,281.149 L 985.709,281.158 L 985.606,281.187 L 985.521,281.205 L 985.427,281.224 L 985.342,281.252 L 985.258,281.271 L 985.182,281.309 L 985.088,281.328 L 985.023,281.375 L 984.947,281.403 L 984.872,281.44 L 984.806,281.488 L 984.75,281.516 L 984.684,281.563 L 984.628,281.619 L 984.581,281.666 L 984.515,281.713 L 984.486,281.77 L 984.43,281.826 L 984.402,281.864 L 984.374,281.92 L 984.345,281.967 L 984.327,282.024 L 984.317,282.089 L 984.298,282.146 L 984.28,282.202 L 984.28,282.259 L 984.28,282.259 L 984.28,282.325 L 984.298,282.381 L 984.317,282.437 L 984.327,282.494 L 984.345,282.55 L 984.374,282.597 L 984.402,282.663 L 984.43,282.71 L 984.486,282.767 L 984.515,282.804 L 984.581,282.861 L 984.628,282.908 L 984.684,282.964 L 984.75,283.002 L 984.806,283.039 L 984.872,283.086 L 984.947,283.124 L 985.023,283.152 L 985.088,283.199 L 985.182,283.218 L 985.258,283.256 L 985.342,283.275 L 985.427,283.303 L 985.521,283.322 L 985.606,283.34 L 985.709,283.359 L 985.794,283.378 L 985.888,283.378 L 985.972,283.378 L 986.076,283.387 L 986.179,283.387 L 986.179,283.387 L 986.255,283.387 L 986.368,283.378 L 986.462,283.378 L 986.546,283.378 L 986.64,283.359 L 986.725,283.34 L 986.828,283.322 L 986.913,283.303 L 987.007,283.275 L 987.082,283.256 L 987.167,283.218 L 987.252,283.199 L 987.317,283.152 L 987.402,283.124 L 987.477,283.086 L 987.543,283.039 L 987.6,283.002 L 987.665,282.964 L 987.722,282.908 L 987.778,282.861 L 987.825,282.804 L 987.854,282.767 L 987.901,282.71 L 987.948,282.663 L 987.966,282.597 L 988.004,282.55 L 988.013,282.494 L 988.042,282.437 L 988.051,282.381 L 988.06,282.325 L 988.06,282.259z"/>
    <path style="fill: none; fill-opacity:0; stroke-width: 0.02; stroke: #dbdbce" d="M 987.816 282.146 L 987.816,282.089 L 987.807,282.033 L 987.807,281.986 L 987.778,281.948 L 987.76,281.873 L 987.75,281.845 L 987.703,281.788 L 987.665,281.732 L 987.637,281.694 L 987.6,281.657 L 987.543,281.619 L 987.496,281.553 L 987.44,281.516 L 987.383,281.488 L 987.336,281.44 L 987.261,281.403 L 987.205,281.384 L 987.139,281.337 L 987.073,281.318 L 986.988,281.281 L 986.913,281.262 L 986.828,281.243 L 986.753,281.215 L 986.668,281.196 L 986.584,281.187 L 986.49,281.158 L 986.415,281.149 L 986.311,281.14 L 986.236,281.14 L 986.142,281.14 L 986.057,281.14 L 986.057,281.14 L 985.963,281.14 L 985.878,281.14 L 985.784,281.14 L 985.709,281.149 L 985.615,281.158 L 985.54,281.187 L 985.436,281.196 L 985.361,281.215 L 985.295,281.243 L 985.201,281.262 L 985.126,281.281 L 985.032,281.318 L 984.985,281.337 L 984.9,281.384 L 984.844,281.403 L 984.778,281.44 L 984.722,281.488 L 984.665,281.516 L 984.609,281.553 L 984.562,281.619 L 984.515,281.657 L 984.477,281.694 L 984.43,281.732 L 984.411,281.788 L 984.374,281.845 L 984.355,281.873 L 984.336,281.948 L 984.317,281.986 L 984.308,282.033 L 984.298,282.089 L 984.298,282.146 L 984.298,282.146 L 984.298,282.193 L 984.308,282.249 L 984.317,282.306 L 984.336,282.334 L 984.355,282.39 L 984.374,282.447 L 984.411,282.494 L 984.43,282.541 L 984.477,282.597 L 984.515,282.626 L 984.562,282.673 L 984.609,282.72 L 984.665,282.767 L 984.722,282.795 L 984.778,282.842 L 984.844,282.87 L 984.9,282.908 L 984.985,282.945 L 985.032,282.964 L 985.126,283.002 L 985.201,283.03 L 985.295,283.039 L 985.361,283.068 L 985.436,283.086 L 985.54,283.096 L 985.615,283.124 L 985.709,283.143 L 985.784,283.143 L 985.878,283.143 L 985.963,283.143 L 986.057,283.143 L 986.057,283.143 L 986.142,283.143 L 986.236,283.143 L 986.311,283.143 L 986.415,283.143 L 986.49,283.124 L 986.584,283.096 L 986.668,283.086 L 986.753,283.068 L 986.828,283.039 L 986.913,283.03 L 986.988,283.002 L 987.073,282.964 L 987.139,282.945 L 987.205,282.908 L 987.261,282.87 L 987.336,282.842 L 987.383,282.795 L 987.44,282.767 L 987.496,282.72 L 987.543,282.673 L 987.6,282.626 L 987.637,282.597 L 987.665,282.541 L 987.703,282.494 L 987.75,282.447 L 987.76,282.39 L 987.778,282.334 L 987.807,282.306 L 987.807,282.249 L 987.816,282.193 L 987.816,282.146"/>
    <path style="fill: none; fill-opacity:0; stroke-width: 0.02; stroke: #626248" d="M 981.787 283.143 L 981.787,283.256 L 981.806,283.34 L 981.844,283.444 L 981.872,283.557 L 981.928,283.651 L 981.985,283.735 L 982.069,283.839 L 982.154,283.942 L 982.248,284.027 L 982.342,284.121 L 982.464,284.206 L 982.577,284.3 L 982.728,284.375 L 982.869,284.45 L 983.019,284.516 L 983.179,284.601 L 983.358,284.667 L 983.518,284.732 L 983.725,284.789 L 983.913,284.845 L 984.11,284.911 L 984.308,284.958 L 984.515,284.986 L 984.722,285.024 L 984.947,285.062 L 985.164,285.08 L 985.38,285.118 L 985.606,285.137 L 985.841,285.146 L 986.067,285.146 L 986.292,285.146"/>
    <path style="fill: none; fill-opacity:0; stroke-width: 0.02; stroke: #626248" d="M 985.784 285.146 L 986.02,285.146 L 986.236,285.146 L 986.471,285.127 L 986.678,285.099 L 986.894,285.08 L 987.12,285.062 L 987.317,285.024 L 987.534,284.977 L 987.722,284.93 L 987.929,284.892 L 988.126,284.836 L 988.305,284.779 L 988.484,284.714 L 988.653,284.629 L 988.822,284.563 L 988.963,284.488 L 989.114,284.413 L 989.246,284.319 L 989.368,284.243 L 989.49,284.14 L 989.594,284.065 L 989.697,283.971 L 989.782,283.858 L 989.838,283.754 L 989.923,283.67 L 989.96,283.557 L 990.007,283.453 L 990.045,283.34 L 990.045,283.256 L 990.064,283.143"/>
    <path style="fill: none; fill-opacity:0; stroke-width: 0.02; stroke: #626248" d="M 986.791 279.371 L 986.574,279.371 L 986.349,279.381 L 986.123,279.381 L 985.897,279.4 L 985.662,279.428 L 985.436,279.437 L 985.239,279.475 L 985.013,279.503 L 984.806,279.559 L 984.609,279.578 L 984.411,279.635 L 984.223,279.672 L 984.035,279.738 L 983.866,279.795 L 983.696,279.851 L 983.518,279.907 L 983.377,279.973 L 983.226,280.039 L 983.094,280.124 L 982.972,280.199 L 982.859,280.265 L 982.746,280.359 L 982.634,280.425 L 982.568,280.5 L 982.493,280.603 L 982.427,280.679 L 982.37,280.773 L 982.333,280.848 L 982.304,280.933 L 982.295,281.036 L 982.286,281.13"/>
    <path style="fill: none; fill-opacity:0; stroke-width: 0.02; stroke: #626248" d="M 990.572 281.13 L 990.553,281.027 L 990.543,280.933 L 990.525,280.848 L 990.478,280.754 L 990.421,280.669 L 990.355,280.575 L 990.28,280.5 L 990.195,280.415 L 990.101,280.321 L 989.989,280.246 L 989.876,280.161 L 989.753,280.086 L 989.603,280.02 L 989.471,279.954 L 989.311,279.889 L 989.161,279.813 L 988.992,279.757 L 988.813,279.71 L 988.615,279.653 L 988.427,279.616 L 988.239,279.559 L 988.042,279.522 L 987.835,279.484 L 987.609,279.447 L 987.412,279.428 L 987.195,279.4 L 986.969,279.381 L 986.734,279.381 L 986.527,279.371 L 986.292,279.371"/>
    <path style="fill: #7a7a5a" d="M 1025.81 268.518 L 1006.45,287.949 L 1006.45,286.181 L 1025.81,266.749 L 1025.81,268.518z"/>
    <path style="fill: none; fill-opacity:0; stroke-width: 0.02; stroke: #494936" d="M 1025.81 268.518 L 1006.45,287.949 L 1006.45,286.181 L 1025.81,266.749 L 1025.81,268.518"/>
    <path style="fill: #7a7a5a" d="M 1019.28 265.263 L 1019.28,265.743 L 1023.05,265.743 L 1023.05,265.263 L 1019.28,265.263z"/>
    <path style="fill: none; fill-opacity:0; stroke-width: 0.02; stroke: #494936" d="M 1019.28 265.263 L 1019.28,265.743 L 1023.05,265.743 L 1023.05,265.263 L 1019.28,265.263"/>
    <path style="fill: none; fill-opacity:0; stroke-width: 0.02; stroke: #000000" d="M 1018.24 270.794 L 979.756,270.794"/>
    <path style="fill: none; fill-opacity:0; stroke-width: 0.02; stroke: #000000" d="M 1015.74 273.324 L 977.254,273.324"/>
    <path style="fill: none; fill-opacity:0; stroke-width: 0.02; stroke: #000000" d="M 1013.23 275.844 L 974.733,275.844"/>
    <path style="fill: #c9c9b6" d="M 981.016 234 L 1027.07,234 L 1025.81,235.242 L 979.756,235.242 L 981.016,234z"/>
    <path style="fill: none; fill-opacity:0; stroke-width: 0.02; stroke: #494936" d="M 981.016 234 L 1027.07,234 L 1025.81,235.242 L 979.756,235.242 L 981.016,234"/>
  </g>
  <g>
    <rect style="fill: #ffffff" x="360" y="500" width="120" height="40"/>
    <rect style="fill: none; fill-opacity:0; stroke-width: 2; stroke: #000000" x="360" y="500" width="120" height="40"/>
  </g>
  <text font-size="12.7998" style="fill: #000000;text-anchor:start;font-family:sans-serif;font-style:normal;font-weight:normal" x="396" y="523">
    <tspan x="396" y="523">runtime</tspan>
  </text>
  <g>
    <rect style="fill: #ffffff" x="560" y="500" width="120" height="40"/>
    <rect style="fill: none; fill-opacity:0; stroke-width: 2; stroke: #000000" x="560" y="500" width="120" height="40"/>
  </g>
  <text font-size="12.7998" style="fill: #000000;text-anchor:start;font-family:sans-serif;font-style:normal;font-weight:normal" x="596" y="523">
    <tspan x="596" y="523">runtime</tspan>
  </text>
  <g>
    <rect style="fill: #ffffff" x="760" y="500" width="120" height="40"/>
    <rect style="fill: none; fill-opacity:0; stroke-width: 2; stroke: #000000" x="760" y="500" width="120" height="40"/>
  </g>
  <text font-size="12.7998" style="fill: #000000;text-anchor:start;font-family:sans-serif;font-style:normal;font-weight:normal" x="796" y="523">
    <tspan x="796" y="523">runtime</tspan>
  </text>
</svg>
